<?xml version="1.0" encoding="UTF-8" standalone="no"?>
<svg
   xmlns:dc="http://purl.org/dc/elements/1.1/"
   xmlns:cc="http://creativecommons.org/ns#"
   xmlns:rdf="http://www.w3.org/1999/02/22-rdf-syntax-ns#"
   xmlns:svg="http://www.w3.org/2000/svg"
   xmlns="http://www.w3.org/2000/svg"
   xmlns:sodipodi="http://sodipodi.sourceforge.net/DTD/sodipodi-0.dtd"
   xmlns:inkscape="http://www.inkscape.org/namespaces/inkscape"
   inkscape:version="1.0 (4035a4fb49, 2020-05-01)"
   sodipodi:docname="logo.svg"
   id="svg887"
   viewBox="0 0 89.6 17.5"
   version="1.1"
   height="250"
   width="1280">
  <defs
     id="defs891" />
  <sodipodi:namedview
     inkscape:current-layer="g883"
     inkscape:window-maximized="1"
     inkscape:window-y="-8"
     inkscape:window-x="1912"
     inkscape:cy="119.17126"
     inkscape:cx="635.70339"
     inkscape:zoom="1.04375"
     showgrid="false"
     id="namedview889"
     inkscape:window-height="1027"
     inkscape:window-width="1920"
     inkscape:pageshadow="2"
     inkscape:pageopacity="0"
     guidetolerance="10"
     gridtolerance="10"
     objecttolerance="10"
     borderopacity="1"
     bordercolor="#666666"
     pagecolor="#ffffff" />
  <metadata
     id="metadata863">
    <rdf:RDF>
      <cc:Work
         rdf:about="">
        <dc:format>image/svg+xml</dc:format>
        <dc:type
           rdf:resource="http://purl.org/dc/dcmitype/StillImage" />
        <dc:title />
      </cc:Work>
    </rdf:RDF>
  </metadata>
  <g
     transform="matrix(1.0022,0,0,0.99149,-54.24496,-64.77661)"
     opacity="0.999"
     id="g883">
    <g
       id="g1028">
      <g
         aria-label="A  s  a  i  Y  u  s  u  k  e  *  J   S   O   N   P   a   t   h"
         transform="scale(1.0192,0.98116)"
         id="text871"
         style="font-size:3.236px;line-height:1.05;font-family:sans-serif;text-align:center;letter-spacing:0px;word-spacing:0px;text-anchor:middle;fill:#479ec5;stroke-width:0.26966">
        <g
           id="g1000">
          <path
             id="path942"
             style="font-weight:bold;font-size:3.236px;font-family:'BIZ UDPGothic';text-align:center;text-anchor:middle;stroke-width:0.26966"
             d="m 54.570834,81.523574 h 0.420301 l 1.023891,2.633991 H 55.561543 L 55.29293,83.440209 h -1.022311 l -0.268613,0.717356 h -0.453482 z m 0.60833,1.576918 -0.244912,-0.666793 q -0.104285,-0.281254 -0.146947,-0.496144 h -0.01264 q -0.04108,0.21489 -0.145367,0.496144 l -0.246492,0.666793 z" />
          <path
             id="path944"
             style="font-weight:bold;font-size:3.236px;font-family:'BIZ UDPGothic';text-align:center;text-anchor:middle;stroke-width:0.26966"
             d="m 58.500488,83.626658 q 0.304955,0.227532 0.684174,0.227532 0.344457,0 0.344457,-0.205411 0,-0.156427 -0.391859,-0.287574 l -0.164328,-0.05372 q -0.290735,-0.09797 -0.39976,-0.178549 -0.176969,-0.132727 -0.176969,-0.377639 0,-0.271773 0.238592,-0.434521 0.189609,-0.129567 0.477184,-0.129567 0.436101,0 0.783718,0.216471 l -0.20067,0.323916 q -0.255972,-0.19435 -0.554607,-0.19435 -0.123246,0 -0.20225,0.04424 -0.09797,0.05372 -0.09797,0.156428 0,0.079 0.08532,0.135887 0.06794,0.0474 0.248073,0.101125 l 0.175388,0.05056 q 0.633612,0.18803 0.633612,0.609911 0,0.21173 -0.154848,0.377638 -0.19593,0.210151 -0.679434,0.210151 -0.470863,0 -0.848502,-0.274934 z" />
          <path
             id="path946"
             style="font-weight:bold;font-size:3.236px;font-family:'BIZ UDPGothic';text-align:center;text-anchor:middle;stroke-width:0.26966"
             d="m 63.694206,82.928264 v -0.03002 q 0,-0.390279 -0.371318,-0.390279 -0.347618,0 -0.625711,0.21015 l -0.161168,-0.292314 q 0.364998,-0.238592 0.801099,-0.238592 0.420301,0 0.627291,0.241752 0.143787,0.165908 0.143787,0.489824 v 0.666793 q 0,0.369739 0.113766,0.571989 h -0.385539 q -0.06794,-0.131147 -0.09007,-0.300215 h -0.01106 q -0.08058,0.158008 -0.259133,0.267033 -0.145367,0.08848 -0.383959,0.08848 -0.282834,0 -0.467703,-0.165908 -0.19277,-0.173808 -0.19277,-0.442422 0,-0.676273 1.093415,-0.676273 z m 0,0.297054 H 63.5678 q -0.369739,0 -0.554608,0.0948 -0.158008,0.08058 -0.158008,0.278094 0,0.132726 0.09481,0.21015 0.09006,0.07426 0.233852,0.07426 0.191189,0 0.342877,-0.135887 0.167488,-0.148527 0.167488,-0.382379 z" />
          <path
             id="path948"
             style="font-weight:bold;font-size:3.236px;font-family:'BIZ UDPGothic';text-align:center;text-anchor:middle;stroke-width:0.26966"
             d="m 66.855942,81.42719 h 0.466123 v 0.432941 h -0.466123 z m 0.01896,0.82164 h 0.426621 v 1.908735 h -0.426621 z" />
          <path
             id="path950"
             style="font-weight:bold;font-size:3.236px;font-family:'BIZ UDPGothic';text-align:center;text-anchor:middle;stroke-width:0.26966"
             d="m 69.775926,81.536215 h 0.524586 l 0.666793,1.071293 0.665212,-1.071293 h 0.524586 l -0.979648,1.42049 v 1.20086 h -0.420301 v -1.20086 z" />
          <path
             id="path952"
             style="font-weight:bold;font-size:3.236px;font-family:'BIZ UDPGothic';text-align:center;text-anchor:middle;stroke-width:0.26966"
             d="m 74.610965,82.24883 h 0.429781 v 1.139237 q 0,0.459802 0.358678,0.459802 0.19277,0 0.350778,-0.167488 0.115345,-0.121666 0.178548,-0.308115 V 82.24883 h 0.429782 v 1.908735 h -0.40134 v -0.339717 q -0.262293,0.376058 -0.681014,0.376058 -0.346037,0 -0.526166,-0.238591 -0.139047,-0.18487 -0.139047,-0.508786 z" />
          <path
             id="path954"
             style="font-weight:bold;font-size:3.236px;font-family:'BIZ UDPGothic';text-align:center;text-anchor:middle;stroke-width:0.26966"
             d="m 79.117348,83.626658 q 0.304955,0.227532 0.684174,0.227532 0.344457,0 0.344457,-0.205411 0,-0.156427 -0.39186,-0.287574 l -0.164328,-0.05372 q -0.290734,-0.09797 -0.39976,-0.178549 -0.176968,-0.132727 -0.176968,-0.377639 0,-0.271773 0.238591,-0.434521 0.18961,-0.129567 0.477184,-0.129567 0.436102,0 0.783719,0.216471 l -0.20067,0.323916 q -0.255973,-0.19435 -0.554608,-0.19435 -0.123246,0 -0.20225,0.04424 -0.09796,0.05372 -0.09796,0.156428 0,0.079 0.08532,0.135887 0.06794,0.0474 0.248072,0.101125 l 0.175389,0.05056 q 0.633611,0.18803 0.633611,0.609911 0,0.21173 -0.154848,0.377638 -0.195929,0.210151 -0.679433,0.210151 -0.470863,0 -0.848502,-0.274934 z" />
          <path
             id="path956"
             style="font-weight:bold;font-size:3.236px;font-family:'BIZ UDPGothic';text-align:center;text-anchor:middle;stroke-width:0.26966"
             d="m 83.174989,82.24883 h 0.429781 v 1.139237 q 0,0.459802 0.358678,0.459802 0.19277,0 0.350777,-0.167488 0.115346,-0.121666 0.178549,-0.308115 V 82.24883 h 0.429782 v 1.908735 h -0.40134 v -0.339717 q -0.262293,0.376058 -0.681014,0.376058 -0.346037,0 -0.526166,-0.238591 -0.139047,-0.18487 -0.139047,-0.508786 z" />
          <path
             id="path958"
             style="font-weight:bold;font-size:3.236px;font-family:'BIZ UDPGothic';text-align:center;text-anchor:middle;stroke-width:0.26966"
             d="m 87.689272,81.390848 h 0.420301 v 1.611679 l 0.731576,-0.753697 h 0.540387 l -0.731576,0.744217 0.802679,1.164518 h -0.518265 l -0.565668,-0.921186 -0.259133,0.244912 v 0.676274 h -0.420301 z" />
          <path
             id="path960"
             style="font-weight:bold;font-size:3.236px;font-family:'BIZ UDPGothic';text-align:center;text-anchor:middle;stroke-width:0.26966"
             d="m 93.70147,83.285361 h -1.42365 q 0.01106,0.251233 0.158008,0.407661 0.176968,0.184869 0.450322,0.184869 0.322336,0 0.570408,-0.301795 l 0.252813,0.255972 q -0.311276,0.39186 -0.862723,0.39186 -0.451902,0 -0.728416,-0.289154 -0.263873,-0.278094 -0.263873,-0.717356 0,-0.357098 0.172229,-0.620971 0.153267,-0.233851 0.40924,-0.339716 0.175388,-0.07268 0.374478,-0.07268 0.317596,0 0.541967,0.176969 0.232272,0.180129 0.312856,0.504045 0.03634,0.146947 0.03634,0.309695 z m -0.423461,-0.308115 q -0.01264,-0.162748 -0.08532,-0.271773 -0.137467,-0.20067 -0.395019,-0.20067 -0.230692,0 -0.379219,0.186449 -0.09164,0.115346 -0.113766,0.285994 z" />
          <path
             id="path962"
             style="fill:#738d99"
             d="m 96.815803,82.733914 -0.107445,-0.543547 q -0.0047,-0.02686 -0.0047,-0.0553 0,-0.07426 0.04424,-0.121666 0.05056,-0.0553 0.135887,-0.0553 0.06952,0 0.118506,0.0395 0.06162,0.04898 0.06162,0.137467 0,0.02686 -0.0063,0.0553 l -0.105865,0.543547 0.349197,-0.40134 q 0.06952,-0.079 0.150108,-0.079 0.0711,0 0.126406,0.05846 0.05214,0.05688 0.05214,0.126407 0,0.110605 -0.121666,0.169068 l -0.494565,0.240172 0.494565,0.238592 q 0.121666,0.05846 0.121666,0.170648 0,0.05688 -0.03792,0.109025 -0.05688,0.07584 -0.140627,0.07584 -0.08058,0 -0.150108,-0.08058 l -0.349197,-0.40134 0.105865,0.545127 q 0.0063,0.02844 0.0063,0.0553 0,0.07426 -0.04424,0.121666 -0.05056,0.0553 -0.137466,0.0553 -0.06952,0 -0.116926,-0.0395 -0.06162,-0.04898 -0.06162,-0.135887 0,-0.0316 0.0047,-0.05688 l 0.107445,-0.545127 -0.349197,0.40134 q -0.06952,0.08058 -0.151687,0.08058 -0.0711,0 -0.126407,-0.06004 -0.05214,-0.05688 -0.05214,-0.124826 0,-0.110605 0.123246,-0.170648 L 96.75418,82.84768 96.259616,82.607508 q -0.123246,-0.05846 -0.123246,-0.169068 0,-0.05688 0.03792,-0.109026 0.05688,-0.07584 0.140627,-0.07584 0.08216,0 0.151687,0.079 z" />
          <path
             id="path964"
             style="fill:#2c7493"
             d="m 100.86397,81.536215 h 0.42662 v 1.880293 q 0,0.341297 -0.11535,0.516685 -0.18803,0.282834 -0.61623,0.282834 -0.31918,0 -0.52143,-0.20383 -0.09638,-0.09796 -0.183285,-0.265453 l 0.246495,-0.243332 q 0.15801,0.347617 0.42188,0.347617 0.16907,0 0.26703,-0.118505 0.0743,-0.08848 0.0743,-0.352358 z" />
          <path
             id="path966"
             style="fill:#2c7493"
             d="m 105.28028,83.493932 q 0.3255,0.366578 0.80584,0.366578 0.21805,0 0.3492,-0.0869 0.15485,-0.105866 0.15485,-0.293895 0,-0.170648 -0.13431,-0.278094 -0.0885,-0.0711 -0.42662,-0.20383 l -0.06,-0.0237 -0.10745,-0.04266 q -0.0111,-0.0047 -0.0395,-0.0158 -0.34762,-0.131146 -0.45032,-0.216471 -0.0158,-0.01422 -0.0395,-0.0395 -0.16906,-0.181709 -0.16906,-0.437681 0,-0.330236 0.23701,-0.532487 0.24807,-0.21173 0.66995,-0.21173 0.29389,0 0.52459,0.0869 0.18329,0.0711 0.36499,0.218051 l -0.21805,0.303375 q -0.27967,-0.265453 -0.66837,-0.265453 -0.25439,0 -0.36974,0.118506 -0.098,0.101125 -0.098,0.244912 0,0.164328 0.1422,0.262293 0.0901,0.0632 0.38238,0.167488 l 0.12641,0.04582 q 0.41714,0.150108 0.57199,0.293895 0.21489,0.20067 0.21489,0.504045 0,0.376059 -0.29548,0.586209 -0.24333,0.172228 -0.66363,0.172228 -0.65415,0 -1.04759,-0.444001 z" />
          <path
             id="path968"
             style="fill:#2c7493"
             d="m 111.94663,81.474592 q 0.39502,0 0.70156,0.19909 0.32549,0.21015 0.47244,0.592529 0.10112,0.262293 0.10112,0.573568 0,0.524586 -0.27493,0.894325 -0.19277,0.257552 -0.48666,0.382379 -0.2386,0.102705 -0.52143,0.102705 -0.62097,0 -0.98439,-0.458223 -0.29547,-0.372898 -0.29547,-0.921186 0,-0.350777 0.12798,-0.639931 0.22912,-0.513526 0.75686,-0.669953 0.18645,-0.0553 0.40292,-0.0553 z m -0.009,0.342877 q -0.27809,0 -0.48824,0.178549 -0.3334,0.282834 -0.3334,0.845341 0,0.328657 0.12009,0.571989 0.0901,0.180129 0.23701,0.293894 0.20225,0.156428 0.47086,0.156428 0.37922,0 0.61149,-0.304955 0.21015,-0.276514 0.21015,-0.717356 0,-0.450322 -0.22279,-0.729996 -0.23385,-0.293894 -0.60517,-0.293894 z" />
          <path
             id="path970"
             style="fill:#2c7493"
             d="m 116.88438,81.536215 h 0.55618 l 0.91961,1.439451 q 0.14062,0.221211 0.30021,0.589369 h 0.0126 q -0.0316,-0.444002 -0.0316,-0.864302 v -1.164518 h 0.41082 v 2.62135 h -0.41082 l -1.07129,-1.670143 q -0.17697,-0.274934 -0.30022,-0.565668 h -0.0174 q 0.0458,0.453482 0.0458,0.932246 v 1.303565 h -0.41398 z" />
          <path
             id="path972"
             style="fill:#2c7493"
             d="m 122.90921,81.536215 h 0.91171 q 0.43136,0 0.67311,0.127986 0.13431,0.0711 0.22911,0.19751 0.15011,0.20383 0.15011,0.472443 0,0.339717 -0.18645,0.560928 -0.14536,0.173809 -0.40134,0.238592 -0.19751,0.05056 -0.47718,0.05056 h -0.4756 v 0.973329 h -0.42347 z m 0.42347,0.336557 v 0.974908 h 0.40134 q 0.35551,0 0.49614,-0.0948 0.18013,-0.120086 0.18013,-0.40766 0,-0.472443 -0.62413,-0.472443 z" />
          <path
             id="path974"
             style="fill:#2c7493"
             d="m 129.69091,82.928264 v -0.03002 q 0,-0.390279 -0.37132,-0.390279 -0.34762,0 -0.62571,0.21015 l -0.16117,-0.292314 q 0.365,-0.238592 0.8011,-0.238592 0.4203,0 0.62729,0.241752 0.14379,0.165908 0.14379,0.489824 v 0.666793 q 0,0.369739 0.11376,0.571989 h -0.38553 q -0.0679,-0.131147 -0.0901,-0.300215 h -0.0111 q -0.0806,0.158008 -0.25913,0.267033 -0.14537,0.08848 -0.38396,0.08848 -0.28284,0 -0.4677,-0.165908 -0.19277,-0.173808 -0.19277,-0.442422 0,-0.676273 1.09341,-0.676273 z m 0,0.297054 h -0.12641 q -0.36974,0 -0.55461,0.0948 -0.158,0.08058 -0.158,0.278094 0,0.132726 0.0948,0.21015 0.0901,0.07426 0.23385,0.07426 0.19119,0 0.34288,-0.135887 0.16749,-0.148527 0.16749,-0.382379 z" />
          <path
             id="path976"
             style="fill:#2c7493"
             d="m 134.51805,81.653141 v 0.595689 h 0.59569 v 0.300215 h -0.59569 v 1.038111 q 0,0.153268 0.0363,0.211731 0.049,0.08058 0.16275,0.08058 0.14062,0 0.28915,-0.110606 l 0.10113,0.293895 q -0.2307,0.146947 -0.48667,0.146947 -0.26545,0 -0.40134,-0.158008 -0.11218,-0.131146 -0.11218,-0.379218 v -1.123436 h -0.42662 V 82.24883 h 0.42662 v -0.40766 z" />
          <path
             id="path978"
             style="fill:#2c7493"
             d="m 138.76214,81.390848 h 0.42662 v 1.181898 q 0.23701,-0.360258 0.64467,-0.360258 0.3492,0 0.53407,0.233852 0.13904,0.175389 0.13904,0.519846 v 1.191379 h -0.42662 v -1.136077 q 0,-0.230691 -0.079,-0.338136 -0.0885,-0.121666 -0.28125,-0.121666 -0.19119,0 -0.35078,0.164328 -0.11693,0.118506 -0.18013,0.308115 v 1.123436 h -0.42662 z" />
        </g>
      </g>
      <path
         id="path873"
         fill="#479ec5"
         d="m 98.957,65.615 -13.374,8.2011 -8.8097,4.7615 h 18.241 l 2.4181,-3.4832 1.6244,-3.5493 4.1761,7.0325 h 17.773 l -9.9004,-5.4891 z" />
      <path
         id="path875"
         fill="#3481a4"
         d="m 99.057,71.545 0.22761,-0.7852 0.13229,-0.90124 1.0583,-0.13226 -0.47158,-1.1096 -1.0469,-3.0018 12.149,7.4734 9.9004,5.4892 h -17.773 l -2.5015,-3.5824 z" />
      <path
         id="path877"
         stroke-width="0.00026458"
         stroke="#f7f7f7"
         fill="#f7f7f7"
         d="m 98.957,65.615 -5.5816,3.4207 0.37427,-0.07 1.4033,-0.5611 -0.31404,0.5312 0.441,-0.26226 0.72163,-0.5195 -0.35246,0.79847 0.65397,-0.26644 0.79429,-0.43014 -0.29901,0.9321 0.30402,-0.09689 0.70158,-0.55291 0.0167,0.7517 0.5145,-1.0657 0.03842,0.95382 0.25474,-0.11442 0.23136,-0.50029 0.11526,0.6047 0.17038,-0.1754 0.10022,-0.6782 0.46772,0.68571 0.58466,0.31154 -0.29395,-0.6949 0.72915,0.38002 0.61221,0.13447 -0.28397,-0.90371 1.2202,0.55876 0.48359,0.09104 -0.45435,-0.73165 1.314,0.51142 0.40838,0.07936 z" />
      <path
         id="path879"
         fill="#dddddd"
         d="m 98.957,65.615 1.0469,3.0018 0.72915,0.38002 0.61221,0.13447 -0.28397,-0.90371 1.2202,0.55876 0.48359,0.09104 -0.45435,-0.73165 1.314,0.51142 0.40838,0.07936 z" />
      <path
         id="path881"
         fill="#f1e2d2"
         d="m 99.057,71.545 -1.6244,3.5493 -2.4181,3.4832 h 8.2185 l -2.5015,-3.5824 z" />
    </g>
  </g>
</svg>
